<svg xmlns="http://www.w3.org/2000/svg" xml:space="preserve" viewBox="0 0 654.1 67.8"><g fill="#BE1E2D"><path d="M48.3 35.2c-7.6 3.8-17.4 6.2-29.6 7.4.4 7.5 4.2 11.3 11.4 11.3 2.6 0 5.3-.5 7.9-1.4 2.6-1 5.4-2.4 8.3-4.4L53 59.3c-7.8 5.7-16.3 8.5-25.3 8.5s-15.9-2.4-20.6-7.3C2.4 55.7 0 49.1 0 40.8c0-6.4 1.2-12.7 3.7-19C6.1 15.6 10 10.4 15.5 6.2 20.9 2.1 27.8 0 36.1 0c7.4 0 13.2 1.6 17.3 4.9 4.1 3.3 6.2 7.4 6.2 12.5 0 8.1-3.7 14-11.3 17.8zm-12.5-8.4c3.4-2.4 5-5.2 5-8.6 0-1.5-.5-2.8-1.4-4-1-1.1-2.5-1.7-4.7-1.7-4.2 0-7.5 1.8-10 5.3s-4.2 7.9-5.2 13.2c7.5-.4 12.9-1.8 16.3-4.2zM64.6 35.5l2-14.6h37.7l-2 14.6H64.6zM166.8 8.2 157.6 19c-3.2-3-6.9-4.4-11-4.4-5.8 0-10 2.7-12.5 8.1-2.5 5.4-3.7 11.5-3.7 18.4 0 4.2.9 7.3 2.6 9.1 1.7 1.8 4.2 2.7 7.4 2.7 2.2 0 4.2-.3 6-1 1.8-.7 4-1.8 6.6-3.4l7 12.1c-6.6 4.9-14 7.3-22 7.3-8.5 0-15.1-2.5-19.9-7.4-4.8-4.9-7.2-11.6-7.2-20.1 0-6.1 1.2-12.2 3.7-18.4 2.5-6.2 6.4-11.4 11.8-15.6 5.4-4.2 12.1-6.3 20.2-6.3 8.1-.1 14.9 2.6 20.2 8.1zM171.9 60.6c-4.7-4.8-7-11.4-7-19.9 0-6.6 1.2-12.9 3.5-19.1 2.3-6.2 6.1-11.3 11.5-15.4C185.1 2 192 0 200.4 0c8.3 0 14.8 2.4 19.6 7.2 4.7 4.8 7.1 11.3 7.1 19.6 0 6.6-1.2 13-3.5 19.2-2.3 6.2-6.1 11.4-11.5 15.6-5.3 4.2-12.2 6.2-20.6 6.2s-14.9-2.4-19.6-7.2zm32.6-15.5c2.2-5.9 3.4-12.3 3.5-19.1 0-4.2-.7-7.2-2.2-9.1-1.5-1.9-3.7-2.9-6.7-2.9-5.5 0-9.4 3-11.7 8.9-2.3 5.9-3.4 12.3-3.4 19.1 0 4.2.7 7.2 2.2 9.1 1.4 1.9 3.7 2.9 6.7 2.9 5.5-.1 9.3-3.1 11.6-8.9zM321.9 4.1c2.5 2.7 3.8 6.5 3.8 11.3 0 1.8-.1 3.1-.2 4.1L319 65.8h-18.6l6-42.1c.2-1.6.2-2.6.2-3.1 0-1.9-.3-3.2-1-4-.7-.7-1.6-1.1-2.8-1.1-3.8 0-8 4.8-12.4 14.5l-5 35.8h-18.6l6-42.1c.2-1.6.2-2.6.2-3 0-1.9-.4-3.3-1.1-4-.7-.8-1.7-1.1-2.9-1.1-2 0-4.1 1.4-6.2 4.1-2.2 2.7-4.2 6.4-6 10.9l-4.9 35.3h-18.6L242.2 2h16.2l-.4 10.5c2.6-4 5.6-7.1 9-9.2S274 0 277.9 0c3.8 0 6.9 1 9.4 3.1s4 5 4.6 8.8c2.6-3.7 5.6-6.6 9.1-8.7 3.4-2.1 7-3.2 10.6-3.2 4.4 0 7.8 1.4 10.3 4.1zM421.6 4.1c2.5 2.7 3.8 6.5 3.8 11.3 0 1.8-.1 3.1-.2 4.1l-6.5 46.3h-18.6l6-42.1c.2-1.6.2-2.6.2-3.1 0-1.9-.3-3.2-1-4-.7-.7-1.6-1.1-2.8-1.1-3.8 0-8 4.8-12.4 14.5l-5 35.8h-18.6l6-42.1c.2-1.6.2-2.6.2-3 0-1.9-.4-3.3-1.1-4-.7-.8-1.7-1.1-2.9-1.1-2 0-4.1 1.4-6.2 4.1-2.2 2.7-4.2 6.4-6 10.9l-4.9 35.3H333L341.9 2h16.2l-.4 10.4c2.6-4 5.6-7.1 9-9.2s7-3.2 10.9-3.2c3.8 0 6.9 1 9.4 3.1s4 5 4.6 8.8c2.6-3.7 5.6-6.6 9.1-8.7 3.5-2.1 7.1-3.2 10.7-3.2 4.3 0 7.7 1.4 10.2 4.1zM481.4 35.2c-7.6 3.8-17.4 6.2-29.6 7.4.4 7.5 4.2 11.3 11.4 11.3 2.6 0 5.3-.5 7.9-1.4 2.6-1 5.4-2.4 8.3-4.4l6.7 11.3c-7.8 5.7-16.3 8.5-25.3 8.5s-15.9-2.4-20.6-7.3c-4.7-4.8-7.1-11.4-7.1-19.7 0-6.4 1.2-12.7 3.7-19 2.4-6.2 6.4-11.4 11.8-15.6C454 2.1 460.9 0 469.2 0c7.4 0 13.2 1.6 17.3 4.9 4.1 3.3 6.2 7.4 6.2 12.5 0 8.1-3.8 14-11.3 17.8zm-12.6-8.4c3.4-2.4 5-5.2 5-8.6 0-1.5-.5-2.8-1.4-4-1-1.1-2.5-1.7-4.7-1.7-4.2 0-7.5 1.8-10 5.3s-4.2 7.9-5.2 13.2c7.6-.4 13-1.8 16.3-4.2zM545.9 1.2l-5.4 18.2c-2.2-.6-4-.8-5.3-.8-3.7 0-6.7 1.5-9.2 4.6-2.4 3-4.6 7.4-6.5 13.1l-4.2 29.5h-18.6L505.6 2h16.2l-.2 11.9c2.2-4.4 4.8-7.8 8-10.1 3.2-2.4 6.5-3.5 10-3.5 2-.1 4.1.3 6.3.9zM596.5 8.2 587.3 19c-3.2-3-6.9-4.4-11-4.4-5.8 0-10 2.7-12.5 8.1C561.3 28 560 34.2 560 41c0 4.2.9 7.3 2.6 9.1 1.7 1.8 4.2 2.7 7.4 2.7 2.2 0 4.2-.3 6-1 1.8-.7 4-1.8 6.6-3.4l7 12.1c-6.6 4.9-14 7.3-22 7.3-8.5 0-15.1-2.5-19.9-7.4-4.8-4.9-7.2-11.6-7.2-20.1 0-6.1 1.2-12.2 3.7-18.4 2.5-6.2 6.4-11.4 11.8-15.6 5.3-4.2 12-6.3 20.1-6.3 8.3 0 15.1 2.7 20.4 8.2zM642.8 35.2c-7.6 3.8-17.4 6.2-29.6 7.4.4 7.5 4.2 11.3 11.4 11.3 2.6 0 5.3-.5 7.9-1.4 2.6-1 5.4-2.4 8.3-4.4l6.7 11.3c-7.8 5.7-16.3 8.5-25.3 8.5s-15.9-2.4-20.6-7.3c-4.7-4.8-7.1-11.4-7.1-19.7 0-6.4 1.2-12.7 3.7-19 2.4-6.2 6.4-11.4 11.8-15.6 5.4-4.2 12.3-6.2 20.6-6.2 7.4 0 13.2 1.6 17.3 4.9 4.1 3.3 6.2 7.4 6.2 12.5 0 8-3.8 13.9-11.3 17.7zm-12.6-8.4c3.4-2.4 5-5.2 5-8.6 0-1.5-.5-2.8-1.4-4-1-1.1-2.5-1.7-4.7-1.7-4.2 0-7.5 1.8-10 5.3s-4.2 7.9-5.2 13.2c7.6-.4 13-1.8 16.3-4.2z"/></g></svg>